{"title":"Fifty.Dead.Men.Walking.2008.x264.AC3(5.1).Multisub.mkv-Zen_Bud","uid":5773701,"size":1341307731,"categoryP":"video","categoryS":"movies","magnet":"?xt=urn:btih:81096797d4c15d6818e3b18c6432124632f2b044&amp;dn=Fifty.Dead.Men.Walking.2008.x264.AC3%285.1%29.Multisub.mkv-Zen_Bud&amp;tr=udp%3A%2F%2Ftracker.openbittorrent.com%3A80&amp;tr=udp%3A%2F%2Fopen.demonii.com%3A1337&amp;tr=udp%3A%2F%2Ftracker.coppersurfer.tk%3A6969&amp;tr=udp%3A%2F%2Fexodus.desync.com%3A6969","seeders":0,"leechers":0,"uploader":"Zen_Bud","files":-1,"time":1282202506,"description":"General\nComplete name                    : Fifty Dead Men Walking 2008.mkv\nFormat                           : Matroska\nFile size                        : 1.25 GiB\nDuration                         : 1h 57mn\nOverall bit rate                 : 1 523 Kbps\nWriting application              : HandBrake svn3482\nWriting library                  : libmkv 0.6.4.1\n\nVideo\nFormat                           : AVC\nDuration                         : 1h 57mn\nBit rate                         : 1 044 Kbps\nWidth                            : 720 pixels\nHeight                           : 496 pixels\nDisplay aspect ratio             : 2.063\nStream size                      : 877 MiB (69%)\nWriting library                  : x264 core 104\n\n\nAudio\n\nFormat                           : AC-3\nDuration                         : 1h 57mn\nBit rate                         : 448 Kbps\nChannel(s)                       : 6 channels\nChannel positions                : Front: L C R, Side: L R, LFE\nSampling rate                    : 48.0 KHz\nStream size                      : 376 MiB (29%)\nLanguage                         : English\n\nText #1\nLanguage                         : English\n\nText #2\nLanguage                         : Danish\n\nText #3\nLanguage                         : Finnish\n\nText #4\nLanguage                         : Norwegian\n\nText #5\nLanguage                         : Swedish\n\n\nMenu\n00:00:00.000                     : Chapter  1\n00:04:59.960                     : Chapter  2\n\n\n","torrent":{"xt":"urn:btih:81096797d4c15d6818e3b18c6432124632f2b044","amp;dn":"Fifty.Dead.Men.Walking.2008.x264.AC3%285.1%29.Multisub.mkv-Zen_Bud","amp;tr":["udp%3A%2F%2Ftracker.openbittorrent.com%3A80","udp%3A%2F%2Fopen.demonii.com%3A1337","udp%3A%2F%2Ftracker.coppersurfer.tk%3A6969","udp%3A%2F%2Fexodus.desync.com%3A6969"],"infoHash":"81096797d4c15d6818e3b18c6432124632f2b044","infoHashBuffer":{"type":"Buffer","data":[129,9,103,151,212,193,93,104,24,227,177,140,100,50,18,70,50,242,176,68]},"announce":[],"urlList":[]}}